# Blender 4.5.1 LTS
# www.blender.org
mtllib bigtree.mtl
o Tree_low
v -0.689822 -0.805604 10.670212
v 0.627375 -1.343000 10.012913
v 1.352179 -0.516540 9.868861
v 1.152666 0.761610 10.011559
v 0.316090 0.911038 10.088470
v -0.917160 0.170257 10.598566
v 2.007581 1.709944 9.371058
v 1.929764 2.282384 8.557720
v 1.295020 2.534574 8.387097
v 0.485179 2.086933 9.226404
v 0.942525 2.942745 7.151357
v -0.033744 3.167304 7.377328
v -0.958510 2.827068 8.696612
v -0.792073 2.291378 9.424681
v -2.390411 2.113823 8.565814
v -2.915966 1.251378 8.893563
v -2.493620 0.950638 10.119789
v -1.750556 1.213145 10.369814
v -2.294115 -0.327125 10.040844
v -1.439271 -1.039130 10.583243
v -2.632795 -0.818091 8.434546
v -2.281046 -1.533531 8.402131
v -1.438770 -2.091712 9.497013
v -0.785011 -2.024392 10.163814
v -1.598708 -2.539710 8.369872
v -0.622439 -2.764521 8.102289
v 0.814759 -2.387083 8.713349
v 0.492249 -2.231195 9.576889
v 2.039137 -1.364581 8.458283
v 2.290751 -0.357531 9.240658
v 2.513162 1.025198 9.022711
v 2.578894 0.890562 8.047234
v 1.918337 1.549561 7.118452
v 1.779311 2.150427 7.281245
v 1.952441 -1.496529 7.181800
v 2.490502 -0.517914 6.988061
v -1.910344 -1.948297 7.429467
v -0.970814 -1.526586 6.514431
v 0.306437 -2.070999 5.929555
v 0.343185 -2.513703 6.647443
v 1.397912 -1.036576 5.087416
v 2.065100 -0.617041 5.549216
v 1.476932 0.661109 5.691914
v 0.612470 1.217463 5.162975
v 0.363605 2.247128 5.579080
v 1.152086 2.407954 6.321181
v 0.268064 0.156540 4.951337
v -0.000869 1.132400 4.879682
v -2.367734 -1.750646 7.126173
v -2.433044 -1.325192 6.184044
v -1.581186 -0.065512 5.719002
v -0.668734 -0.269888 5.654940
v -2.169353 1.212243 5.797946
v -1.454176 1.982388 5.441509
v -0.913647 2.789192 5.775308
v -1.101452 2.970483 6.629058
v -3.005209 0.744278 6.643069
v -2.540864 1.896700 7.289847
v -3.199769 -0.400576 7.466371
v -3.134038 -0.777406 6.492362
v 0.510351 0.410126 0.001349
v 0.116989 0.951523 -0.001937
v -0.380030 0.965124 2.239290
v -0.037477 0.422553 2.049223
v -0.519485 0.744724 -0.000682
v -0.934304 0.760223 2.553397
v -0.519485 0.075519 0.003379
v -0.934304 0.091018 2.557458
v 0.116989 -0.131280 0.004634
v -0.380030 -0.117680 2.245861
v 0.171689 0.448336 6.299433
v -0.019683 0.467599 6.159315
v -0.329343 0.458540 5.932853
v -0.329343 0.433693 5.933004
v -0.019683 0.427382 6.159558
v 0.189246 0.647751 3.412471
v 0.326497 0.429660 3.220434
v -0.032831 0.566792 3.725816
v -0.032831 0.298663 3.727443
v 0.189246 0.213907 3.415103
v 0.847124 0.653502 4.360257
v 1.075841 0.436956 4.424115
v 0.477055 0.570031 4.259555
v 0.477055 0.301902 4.261183
v 0.847124 0.219659 4.362889
v 0.567906 0.707272 5.354574
v 0.759286 0.443470 5.496177
v 0.258245 0.604808 5.128679
v 0.258245 0.277675 5.130664
v 0.567906 0.177960 5.357786
vn 0.3302 -0.0194 0.9437
vn 0.2569 0.0401 0.9656
vn 0.3497 0.0753 0.9338
vn 0.0119 0.7211 0.6927
vn 0.1314 0.7342 0.6661
vn 0.1487 0.5850 0.7973
vn 0.1745 0.8950 0.4106
vn 0.2621 0.8433 0.4692
vn 0.1790 0.8790 0.4420
vn -0.4826 0.7054 0.5191
vn -0.4866 0.7297 0.4804
vn -0.3937 0.7309 0.5575
vn -0.3409 0.0043 0.9401
vn -0.3124 0.1243 0.9418
vn -0.3253 -0.0735 0.9428
vn -0.7900 -0.4717 0.3916
vn -0.7276 -0.4924 0.4776
vn -0.7166 -0.5375 0.4445
vn -0.0468 -0.9244 0.3785
vn -0.0197 -0.9559 0.2931
vn -0.0631 -0.9593 0.2751
vn 0.6235 -0.5466 0.5589
vn 0.6132 -0.4955 0.6151
vn 0.6600 -0.5349 0.5275
vn 0.8698 0.4935 0.0006
vn 0.9128 0.3831 -0.1419
vn 0.9214 0.3836 -0.0628
vn 0.9768 -0.2143 0.0011
vn 0.9498 -0.2869 0.1250
vn 0.9698 -0.2278 0.0874
vn -0.3659 -0.7930 -0.4872
vn -0.4318 -0.7416 -0.5134
vn -0.3360 -0.8427 -0.4207
vn 0.6303 -0.7440 -0.2217
vn 0.6512 -0.6770 -0.3429
vn 0.5731 -0.7172 -0.3964
vn 0.7041 0.4257 -0.5684
vn 0.7149 0.3402 -0.6108
vn 0.7815 0.2999 -0.5471
vn 0.4480 0.2513 -0.8580
vn 0.3735 0.1055 -0.9216
vn 0.4328 0.1163 -0.8940
vn 0.0597 -0.7874 -0.6136
vn -0.0525 -0.5975 -0.8001
vn -0.2165 -0.6022 -0.7684
vn -0.3327 -0.1441 -0.9320
vn -0.4358 -0.2217 -0.8723
vn -0.3541 -0.2076 -0.9119
vn 0.1671 0.9259 -0.3389
vn 0.1604 0.9146 -0.3713
vn 0.2193 0.8727 -0.4363
vn -0.7316 0.6038 -0.3166
vn -0.7026 0.5717 -0.4236
vn -0.7168 0.6063 -0.3443
vn -0.8652 -0.4860 0.1234
vn -0.7528 -0.6485 0.1125
vn -0.7898 -0.6051 0.1006
vn -0.9270 0.3671 -0.0771
vn -0.9503 0.3111 -0.0134
vn -0.9713 0.2375 -0.0102
vn 0.1713 0.5146 0.8402
vn 0.2650 0.4428 0.8565
vn 0.2093 0.4633 0.8611
vn 0.2218 -0.4091 0.8851
vn 0.2968 -0.4260 0.8546
vn 0.1459 -0.3893 0.9095
vn 0.5729 0.0141 0.8195
vn 0.5852 0.0290 0.8104
vn 0.5720 0.0168 0.8201
vn 0.4917 -0.8694 -0.0493
vn 0.4669 -0.8792 0.0949
vn 0.4723 -0.8779 -0.0792
vn 0.8604 0.3137 -0.4017
vn 0.8430 0.3518 -0.4069
vn 0.8886 0.2884 -0.3568
vn -0.4258 -0.3628 -0.8289
vn -0.3891 -0.4566 -0.8001
vn -0.4169 -0.3839 -0.8239
vn 0.0438 0.4409 -0.8965
vn 0.0153 0.3765 -0.9263
vn 0.0933 0.5535 -0.8276
vn -0.4611 0.0026 -0.8873
vn -0.6405 -0.0068 -0.7679
vn -0.5872 -0.0618 -0.8071
vn -0.4966 0.8680 0.0027
vn -0.3570 0.9271 0.1139
vn -0.3965 0.9077 0.1376
vn -0.9142 -0.1987 0.3532
vn -0.9468 -0.1799 0.2670
vn -0.9274 -0.1974 0.3177
vn -0.6199 -0.7839 -0.0355
vn -0.8520 -0.4715 0.2277
vn -0.8109 -0.5332 0.2410
vn 0.5202 0.8540 0.0071
vn 0.6985 0.6858 -0.2044
vn 0.6986 0.6967 -0.1632
vn 0.4966 0.1781 0.8495
vn 0.2662 -0.0658 0.9617
vn 0.1514 0.3772 0.9137
vn 0.1610 0.4486 0.8791
vn 0.1737 0.8131 0.5556
vn 0.5010 0.4637 0.7307
vn -0.1503 0.9252 0.3485
vn 0.2955 0.8544 0.4275
vn 0.2144 0.8095 0.5466
vn -0.3997 0.6923 0.6008
vn -0.7137 0.5827 0.3887
vn -0.4288 0.7803 0.4553
vn -0.2842 -0.1033 0.9532
vn -0.2281 0.4018 0.8869
vn -0.2496 0.0129 0.9683
vn -0.7196 -0.6070 0.3373
vn -0.8106 -0.4172 0.4109
vn -0.5365 -0.6062 0.5872
vn -0.3071 -0.8686 0.3888
vn -0.0303 -0.8170 0.5759
vn -0.0939 -0.9853 0.1428
vn 0.6408 -0.6772 0.3616
vn 0.5117 -0.6032 0.6118
vn 0.6132 -0.4213 0.6682
vn 0.8353 0.4841 0.2608
vn 0.7357 0.6759 -0.0437
vn 0.9558 0.2589 -0.1394
vn 0.9857 -0.1449 0.0864
vn 0.9768 -0.2093 -0.0447
vn 0.8265 -0.3705 0.4238
vn -0.3128 -0.8473 -0.4292
vn -0.5213 -0.4334 -0.7351
vn -0.4727 -0.7607 -0.4449
vn 0.3572 -0.7867 -0.5034
vn 0.5858 -0.8018 -0.1180
vn 0.5178 -0.4310 -0.7390
vn 0.8329 0.3158 -0.4544
vn 0.6539 0.4140 -0.6333
vn 0.6343 -0.5352 -0.5579
vn 0.6468 0.3720 -0.6658
vn 0.4129 0.2927 -0.8625
vn 0.4135 0.0472 -0.9093
vn -0.0661 -0.8787 -0.4729
vn 0.7233 -0.6092 -0.3252
vn -0.1763 -0.5265 -0.8317
vn -0.0627 0.0328 -0.9975
vn -0.3911 -0.0618 -0.9183
vn -0.5262 -0.2056 -0.8252
vn 0.2799 0.8326 -0.4779
vn -0.0301 0.9764 -0.2139
vn 0.0728 0.8467 -0.5271
vn -0.7345 0.6128 -0.2917
vn -0.7436 0.4708 -0.4748
vn -0.6513 0.5537 -0.5190
vn -0.9977 -0.0022 0.0682
vn -0.8474 -0.4307 0.3105
vn -0.5117 -0.8123 0.2797
vn -0.9285 0.3209 -0.1868
vn -0.8520 0.5235 0.0114
vn -0.8235 0.0136 0.5671
vn -0.0236 0.5933 0.8046
vn 0.2123 0.5306 0.8206
vn 0.0127 -0.3845 0.9230
vn 0.3094 -0.4566 0.8342
vn 0.5569 -0.0058 0.8306
vn 0.5951 0.0309 0.8031
vn 0.4327 -0.6689 -0.6045
vn 0.4843 -0.8575 0.1736
vn 0.9438 0.1588 -0.2900
vn 0.7685 0.4086 -0.4923
vn -0.4760 -0.1957 -0.8574
vn -0.3949 -0.4521 -0.7998
vn 0.1906 0.7469 -0.6370
vn 0.0159 0.3732 -0.9276
vn -0.3526 -0.1049 -0.9299
vn -0.3195 0.1201 -0.9399
vn -0.6147 0.7863 -0.0613
vn -0.4389 0.8952 -0.0768
vn -0.8804 -0.2143 0.4231
vn -0.9538 -0.1645 0.2514
vn -0.6863 -0.7079 0.1671
vn -0.0164 -0.8488 -0.5284
vn 0.3093 0.9257 0.2175
vn 0.5637 0.8122 -0.1504
vn 0.3651 0.9270 0.0861
vn 0.9738 -0.0158 0.2268
vn 0.9647 -0.0078 0.2632
vn -0.7714 0.6223 -0.1333
vn 0.0331 0.9993 0.0147
vn -0.7741 -0.6183 -0.1360
vn -0.9044 0.3984 -0.1525
vn 0.0558 -0.9978 0.0351
vn -0.9066 -0.3979 -0.1406
vn 0.3785 -0.9188 0.1119
vn -0.0000 -0.0061 -1.0000
vn 0.7736 0.5881 -0.2361
vn 0.7556 0.6223 -0.2045
vn 0.7786 0.5775 -0.2455
vn -0.1410 0.9410 0.3076
vn -0.0841 0.9679 0.2367
vn -0.1580 0.9312 0.3286
vn -0.7925 0.0037 0.6099
vn -0.1410 -0.9372 0.3190
vn -0.0841 -0.9650 0.2484
vn -0.0617 -0.9735 0.2203
vn 0.7736 -0.5909 -0.2289
vn 0.7556 -0.6247 -0.1969
vn 0.7468 -0.6395 -0.1822
vn 0.5920 0.6956 -0.4070
vn 0.6701 0.6082 -0.4255
vn 0.6815 0.5937 -0.4279
vn -0.1809 0.9719 0.1506
vn -0.2437 0.9548 0.1704
vn -0.2619 0.9489 0.1761
vn -0.7231 0.0042 0.6907
vn -0.1809 -0.9700 0.1624
vn -0.2437 -0.9526 0.1820
vn -0.1553 -0.9757 0.1543
vn 0.5920 -0.7005 -0.3986
vn 0.6701 -0.6133 -0.4181
vn 0.5728 -0.7192 -0.3932
vn 0.6750 0.7204 0.1592
vn 0.7216 0.6624 0.2015
vn 0.7332 0.6460 0.2126
vn -0.2056 0.9739 -0.0958
vn -0.2256 0.9678 -0.1115
vn -0.2335 0.9652 -0.1178
vn -0.9698 -0.0015 -0.2441
vn -0.2056 -0.9750 -0.0840
vn -0.2256 -0.9691 -0.0998
vn -0.1962 -0.9776 -0.0766
vn 0.6750 -0.7184 0.1679
vn 0.7216 -0.6599 0.2095
vn 0.6586 -0.7366 0.1540
vn 0.7468 0.6373 -0.1900
vn -0.0617 0.9761 0.2085
vn -0.1580 -0.9271 0.3399
vn 0.7786 -0.5805 -0.2384
vn 0.5728 0.7144 -0.4019
vn -0.1553 0.9775 0.1425
vn -0.2619 -0.9467 0.1876
vn 0.6815 -0.5988 -0.4206
vn 0.6586 0.7384 0.1450
vn -0.1962 0.9766 -0.0885
vn -0.2335 -0.9666 -0.1060
vn 0.7332 -0.6433 0.2204
vn -0.5904 0.0049 0.8071
vn 0.4520 0.7359 0.5042
vn 0.1649 0.9735 0.1583
vn 0.0682 0.9967 0.0439
vn -0.2859 0.9569 0.0503
vn -0.1606 0.9831 0.0876
vn -0.3366 0.9410 0.0345
vn -0.8071 -0.0036 -0.5904
vn -0.2859 -0.9563 0.0619
vn -0.1606 -0.9820 0.0995
vn -0.1046 -0.9878 0.1155
vn 0.4520 -0.7297 0.5131
vn 0.1649 -0.9715 0.1701
vn 0.4977 -0.6551 0.5685
vn 0.4977 0.6619 0.5605
vn -0.1046 0.9891 0.1035
vn -0.3366 -0.9405 0.0459
vn 0.0682 -0.9961 0.0559
vt 0.180900 -0.197200
vt 0.319100 0.111800
vt 0.000000 0.085400
vt 0.177100 0.174100
vt 0.430900 0.180900
vt 0.206000 0.487000
vt 0.111800 0.378100
vt 0.378100 0.319100
vt -0.319100 -0.111800
vt 0.000000 -0.085400
vt -0.180900 0.197200
vt -0.194100 0.172100
vt -0.430900 0.180900
vt -0.258300 0.372000
vt 0.180900 0.197200
vt 0.319100 -0.111800
vt -0.319100 0.111800
vt -0.111800 0.378100
vt -0.378100 0.319100
vt -0.180900 -0.197200
vt 0.217900 -0.157600
vt 0.430900 -0.180900
vt 0.124200 -0.448600
vt 0.111800 -0.378100
vt 0.378100 -0.319100
vt -0.305200 -0.342300
vt -0.124900 -0.369500
vt 0.279500 -0.356600
vt 0.424900 -0.213000
vt -0.111800 -0.378100
vt 0.397300 0.365700
vt 0.197200 0.430900
vt -0.453600 0.254700
vt -0.197200 0.430900
vt 0.341100 -0.306700
vt 0.197200 -0.430900
vt -0.197200 -0.430900
vt -0.430900 -0.180900
vt -0.189100 -0.183500
vt 0.208900 -0.310700
vt 0.950000 0.000000
vt 0.750000 1.000000
vt 0.750000 0.000000
vt 1.150000 0.000000
vt 0.950000 1.000000
vt 0.350000 0.000000
vt 0.150000 1.000000
vt 0.150000 0.000000
vt 0.550000 1.000000
vt 0.350000 1.000000
vt 0.550000 0.000000
vt 0.793900 0.095500
vt 0.024500 0.654500
vt 0.500000 1.000000
vt 0.206100 0.095500
vt 0.975500 0.654500
vt 1.150000 1.000000
s 1
usemtl wire_154185229
f 2/1/1 4/2/2 6/3/3
f 7/4/4 9/5/5 5/6/6
f 11/3/7 13/1/8 10/2/9
f 15/2/10 17/7/11 14/8/12
f 19/9/13 1/10/14 18/11/15
f 21/12/16 23/13/17 20/14/18
f 25/10/19 27/15/20 24/16/21
f 29/17/22 3/18/23 28/19/24
f 31/3/25 33/1/26 8/2/27
f 30/11/28 35/9/29 32/10/30
f 37/20/31 39/17/32 26/3/33
f 41/21/34 36/22/35 40/23/36
f 43/24/37 45/25/38 34/16/39
f 42/16/40 47/10/41 44/15/42
f 49/26/43 51/9/44 38/27/45
f 53/17/46 48/3/47 52/20/48
f 55/9/49 12/10/50 46/11/51
f 54/28/52 57/1/53 56/29/54
f 22/17/55 59/3/56 50/20/57
f 16/15/58 58/16/59 60/10/60
f 10/7/61 18/11/62 6/3/63
f 24/30/64 2/1/65 1/10/66
f 30/11/67 7/15/68 4/7/69
f 26/3/70 35/18/71 29/7/72
f 42/30/73 33/1/74 32/10/75
f 38/30/76 47/10/77 41/1/78
f 54/11/79 45/7/80 44/15/81
f 50/20/82 57/1/83 53/24/84
f 15/24/85 12/10/86 56/20/87
f 21/11/88 17/7/89 16/15/90
f 49/30/91 25/10/92 23/1/93
f 8/7/94 46/11/95 11/3/96
f 6/3/3 1/10/97 2/1/1
f 2/1/1 3/16/98 4/2/2
f 4/2/2 5/15/99 6/3/3
f 5/6/6 4/7/100 7/4/4
f 7/4/4 8/2/101 9/5/5
f 9/5/5 10/31/102 5/6/6
f 10/2/9 9/15/103 11/3/7
f 11/3/7 12/10/104 13/1/8
f 13/1/8 14/16/105 10/2/9
f 14/8/12 13/5/106 15/2/10
f 15/2/10 16/15/107 17/7/11
f 17/7/11 18/32/108 14/8/12
f 18/11/15 17/17/109 19/9/13
f 19/9/13 20/20/110 1/10/14
f 1/10/14 6/3/111 18/11/15
f 20/14/18 19/18/112 21/12/16
f 21/12/16 22/17/113 23/13/17
f 23/13/17 24/33/114 20/14/18
f 24/16/21 23/1/115 25/10/19
f 25/10/19 26/3/116 27/15/20
f 27/15/20 28/2/117 24/16/21
f 28/19/24 27/13/118 29/17/22
f 29/17/22 30/11/119 3/18/23
f 3/18/23 2/34/120 28/19/24
f 8/2/27 7/15/121 31/3/25
f 31/3/25 32/10/122 33/1/26
f 33/1/26 34/16/123 8/2/27
f 32/10/30 31/3/124 30/11/28
f 30/11/28 29/17/125 35/9/29
f 35/9/29 36/20/126 32/10/30
f 26/3/33 25/10/127 37/20/31
f 37/20/31 38/9/128 39/17/32
f 39/17/32 40/11/129 26/3/33
f 40/23/36 39/24/130 41/21/34
f 41/21/34 42/16/131 36/22/35
f 36/22/35 35/35/132 40/23/36
f 34/16/39 33/1/133 43/24/37
f 43/24/37 44/36/134 45/25/38
f 45/25/38 46/22/135 34/16/39
f 44/15/42 43/2/136 42/16/40
f 42/16/40 41/1/137 47/10/41
f 47/10/41 48/3/138 44/15/42
f 38/27/45 37/37/139 49/26/43
f 49/26/43 50/38/140 51/9/44
f 51/9/44 52/39/141 38/27/45
f 52/20/48 51/9/142 53/17/46
f 53/17/46 54/11/143 48/3/47
f 48/3/47 47/10/144 52/20/48
f 46/11/51 45/17/145 55/9/49
f 55/9/49 56/20/146 12/10/50
f 12/10/50 11/3/147 46/11/51
f 56/29/54 55/25/148 54/28/52
f 54/28/52 53/40/149 57/1/53
f 57/1/53 58/16/150 56/29/54
f 50/20/57 49/9/151 22/17/55
f 22/17/55 21/11/152 59/3/56
f 59/3/56 60/10/153 50/20/57
f 60/10/60 59/3/154 16/15/58
f 16/15/58 15/2/155 58/16/59
f 58/16/59 57/1/156 60/10/60
f 6/3/63 5/15/157 10/7/61
f 10/7/61 14/18/158 18/11/62
f 1/10/66 20/20/159 24/30/64
f 24/30/64 28/24/160 2/1/65
f 4/7/69 3/18/161 30/11/67
f 30/11/67 31/3/162 7/15/68
f 29/7/72 27/15/163 26/3/70
f 26/3/70 40/11/164 35/18/71
f 32/10/75 36/20/165 42/30/73
f 42/30/73 43/24/166 33/1/74
f 41/1/78 39/24/167 38/30/76
f 38/30/76 52/20/168 47/10/77
f 44/15/81 48/3/169 54/11/79
f 54/11/79 55/18/170 45/7/80
f 53/24/84 51/30/171 50/20/82
f 50/20/82 60/10/172 57/1/83
f 56/20/87 58/30/173 15/24/85
f 15/24/85 13/1/174 12/10/86
f 16/15/90 59/3/175 21/11/88
f 21/11/88 19/18/176 17/7/89
f 23/1/93 22/24/177 49/30/91
f 49/30/91 37/20/178 25/10/92
f 11/3/96 9/15/179 8/7/94
f 8/7/94 34/18/180 46/11/95
usemtl wire_224086086
f 62/41/181 64/42/182 61/43/183
f 65/44/184 63/45/185 62/41/181
f 67/46/186 66/47/187 65/48/184
f 67/46/186 70/49/188 68/50/189
f 69/51/190 64/42/182 70/49/188
f 67/52/191 62/53/191 61/54/191
f 63/53/192 77/54/193 64/54/194
f 66/55/195 76/53/196 63/53/197
f 68/52/198 78/55/198 66/55/198
f 68/52/199 80/56/200 79/52/201
f 70/56/202 77/54/203 80/56/204
f 77/54/205 81/53/206 82/54/207
f 76/53/208 83/55/209 81/53/210
f 79/52/211 83/55/211 78/55/211
f 80/56/212 84/52/213 79/52/214
f 77/54/215 85/56/216 80/56/217
f 82/54/218 86/53/219 87/54/220
f 81/53/221 88/55/222 86/53/223
f 84/52/224 88/55/224 83/55/224
f 85/56/225 89/52/226 84/52/227
f 82/54/228 90/56/229 85/56/230
f 62/41/181 63/45/185 64/42/182
f 65/44/184 66/57/187 63/45/185
f 67/46/186 68/50/189 66/47/187
f 67/46/186 69/51/190 70/49/188
f 69/51/190 61/43/183 64/42/182
f 61/54/191 69/56/191 67/52/191
f 67/52/191 65/55/191 62/53/191
f 63/53/192 76/53/231 77/54/193
f 66/55/195 78/55/232 76/53/196
f 68/52/198 79/52/198 78/55/198
f 68/52/199 70/56/233 80/56/200
f 70/56/202 64/54/234 77/54/203
f 77/54/205 76/53/235 81/53/206
f 76/53/208 78/55/236 83/55/209
f 79/52/211 84/52/211 83/55/211
f 80/56/212 85/56/237 84/52/213
f 77/54/215 82/54/238 85/56/216
f 82/54/218 81/53/239 86/53/219
f 81/53/221 83/55/240 88/55/222
f 84/52/224 89/52/224 88/55/224
f 85/56/225 90/56/241 89/52/226
f 82/54/228 87/54/242 90/56/229
usemtl Material__49
f 72/53/243 74/52/243 75/56/243
f 87/54/244 72/53/245 71/54/246
f 88/55/247 72/53/248 86/53/249
f 89/52/250 73/55/250 88/55/250
f 89/52/251 75/56/252 74/52/253
f 87/54/254 75/56/255 90/56/256
f 75/56/243 71/54/243 72/53/243
f 72/53/243 73/55/243 74/52/243
f 87/54/244 86/53/257 72/53/245
f 88/55/247 73/55/258 72/53/248
f 89/52/250 74/52/250 73/55/250
f 89/52/251 90/56/259 75/56/252
f 87/54/254 71/54/260 75/56/255
